# MagicaVoxel @ Ephtracy

# group
o 

# material
mtllib player.mtl
usemtl palette

# normals
vn -1 0 0
vn 1 0 0
vn 0 0 1
vn 0 0 -1
vn 0 -1 0
vn 0 1 0

# texcoords
vt 0.0332031 0.5
vt 0.0605469 0.5
vt 0.0683594 0.5
vt 0.369141 0.5
vt 0.533203 0.5
vt 0.537109 0.5
vt 0.541016 0.5
vt 0.876953 0.5
vt 0.912109 0.5
vt 0.962891 0.5
vt 0.994141 0.5

# verts
v -0.4 0.8 0
v -0.4 0.8 -0.1
v -0.4 1 0
v -0.4 1 -0.1
v -0.3 0.3 0
v -0.3 0.3 -0.1
v -0.3 0.6 0
v -0.3 0.6 -0.1
v -0.3 0.6 -0.2
v -0.3 0.7 0
v -0.3 0.7 -0.1
v -0.3 0.7 -0.2
v -0.3 0.7 -0.3
v -0.3 0.8 0.1
v -0.3 0.8 0
v -0.3 0.8 -0.1
v -0.3 0.9 0.1
v -0.3 0.9 0
v -0.3 1 0.2
v -0.3 1 0.1
v -0.3 1 0
v -0.3 1 -0.1
v -0.3 1.1 0.2
v -0.3 1.1 0
v -0.3 1.1 -0.1
v -0.3 1.1 -0.2
v -0.3 1.2 0
v -0.3 1.2 -0.1
v -0.3 1.2 -0.2
v -0.3 1.2 -0.3
v -0.2 0 0
v -0.2 0 -0.1
v -0.2 0.2 0
v -0.2 0.2 -0.1
v -0.2 0.3 0
v -0.2 0.3 -0.1
v -0.2 0.4 0.1
v -0.2 0.4 0
v -0.2 0.4 -0.1
v -0.2 0.4 -0.2
v -0.2 0.6 0.1
v -0.2 0.6 0
v -0.2 0.6 -0.1
v -0.2 0.6 -0.2
v -0.2 0.6 -0.3
v -0.2 0.7 0.1
v -0.2 0.7 0
v -0.2 0.7 -0.2
v -0.2 0.7 -0.3
v -0.2 0.7 -0.4
v -0.2 0.8 0.1
v -0.2 0.8 0
v -0.2 0.8 -0.3
v -0.2 0.8 -0.4
v -0.2 0.9 -0.3
v -0.2 0.9 -0.4
v -0.2 1 0
v -0.2 1 -0.1
v -0.2 1.1 0.2
v -0.2 1.1 0
v -0.2 1.1 -0.1
v -0.2 1.1 -0.2
v -0.2 1.1 -0.3
v -0.2 1.1 -0.4
v -0.2 1.2 0.2
v -0.2 1.2 0
v -0.2 1.2 -0.1
v -0.2 1.2 -0.2
v -0.2 1.3 0
v -0.2 1.3 -0.1
v -0.1 0.3 0.1
v -0.1 0.3 0
v -0.1 0.3 -0.1
v -0.1 0.3 -0.2
v -0.1 0.4 0.1
v -0.1 0.4 0
v -0.1 0.4 -0.1
v -0.1 0.4 -0.2
v -0.1 0.6 0.1
v -0.1 0.6 0
v -0.1 0.6 -0.3
v -0.1 0.6 -0.4
v -0.1 0.7 0.1
v -0.1 0.7 0
v -0.1 0.7 -0.3
v -0.1 0.7 -0.4
v -0.1 0.9 0.2
v -0.1 0.9 0.1
v -0.1 1.1 0.2
v -0.1 1.1 0.1
v -0.1 1.2 0.1
v -0.1 1.2 0
v -0.1 1.2 -0.1
v -0.1 1.2 -0.2
v -0.1 1.3 0.1
v -0.1 1.3 0
v -0.1 1.3 -0.1
v -0.1 1.3 -0.2
v 0.1 0 0
v 0.1 0 -0.1
v 0.1 0.2 0
v 0.1 0.2 -0.1
v 0.1 0.3 0
v 0.1 0.3 -0.1
v 0.1 0.7 -0.3
v 0.1 0.7 -0.4
v 0.1 0.8 -0.2
v 0.1 0.8 -0.3
v 0.1 0.8 -0.4
v 0.1 0.9 -0.2
v 0.1 0.9 -0.3
v 0.1 0.9 -0.4
v 0.1 1 -0.3
v 0.1 1 -0.4
v 0.2 0.9 0.2
v 0.2 0.9 0.1
v 0.2 1 0.2
v 0.2 1 0.1
v -0.2 1 0.2
v -0.2 1 0.1
v -0.2 1.1 0.2
v -0.2 1.1 0.1
v -0.1 0 0
v -0.1 0 -0.1
v -0.1 0.2 0
v -0.1 0.2 -0.1
v -0.1 0.3 0
v -0.1 0.3 -0.1
v -0.1 0.7 -0.3
v -0.1 0.7 -0.4
v -0.1 0.8 -0.2
v -0.1 0.8 -0.3
v -0.1 0.8 -0.4
v -0.1 0.9 -0.2
v -0.1 0.9 -0.3
v -0.1 0.9 -0.4
v -0.1 1 -0.3
v -0.1 1 -0.4
v 0 0.9 0.2
v 0 0.9 0.1
v 0 1 0.1
v 0 1.1 0.2
v 0 1.1 0.1
v 0.1 0.3 0.1
v 0.1 0.3 0
v 0.1 0.3 -0.1
v 0.1 0.3 -0.2
v 0.1 0.4 0.1
v 0.1 0.4 0
v 0.1 0.4 -0.1
v 0.1 0.4 -0.2
v 0.1 0.6 0.1
v 0.1 0.6 0
v 0.1 0.6 -0.3
v 0.1 0.6 -0.4
v 0.1 0.7 0.1
v 0.1 0.7 0
v 0.1 0.7 -0.3
v 0.1 0.7 -0.4
v 0.1 1.2 0.1
v 0.1 1.2 0
v 0.1 1.2 -0.1
v 0.1 1.2 -0.2
v 0.1 1.3 0.1
v 0.1 1.3 0
v 0.1 1.3 -0.1
v 0.1 1.3 -0.2
v 0.2 0 0
v 0.2 0 -0.1
v 0.2 0.2 0
v 0.2 0.2 -0.1
v 0.2 0.3 0
v 0.2 0.3 -0.1
v 0.2 0.4 0.1
v 0.2 0.4 0
v 0.2 0.4 -0.1
v 0.2 0.4 -0.2
v 0.2 0.6 0.1
v 0.2 0.6 0
v 0.2 0.6 -0.1
v 0.2 0.6 -0.2
v 0.2 0.6 -0.3
v 0.2 0.7 0.1
v 0.2 0.7 0
v 0.2 0.7 -0.2
v 0.2 0.7 -0.3
v 0.2 0.7 -0.4
v 0.2 0.8 0.1
v 0.2 0.8 0
v 0.2 0.8 -0.2
v 0.2 0.8 -0.3
v 0.2 0.8 -0.4
v 0.2 0.9 0.1
v 0.2 0.9 0
v 0.2 0.9 -0.2
v 0.2 0.9 -0.3
v 0.2 0.9 -0.4
v 0.2 1 0.1
v 0.2 1 0
v 0.2 1 -0.1
v 0.2 1.1 0.2
v 0.2 1.1 0.1
v 0.2 1.1 0
v 0.2 1.1 -0.1
v 0.2 1.1 -0.2
v 0.2 1.1 -0.3
v 0.2 1.1 -0.4
v 0.2 1.2 0.2
v 0.2 1.2 0
v 0.2 1.2 -0.1
v 0.2 1.2 -0.2
v 0.2 1.3 0
v 0.2 1.3 -0.1
v 0.3 0.3 0
v 0.3 0.3 -0.1
v 0.3 0.6 0
v 0.3 0.6 -0.1
v 0.3 0.6 -0.2
v 0.3 0.7 0
v 0.3 0.7 -0.1
v 0.3 0.7 -0.2
v 0.3 0.7 -0.3
v 0.3 0.8 0.1
v 0.3 0.8 0
v 0.3 0.8 -0.1
v 0.3 0.8 -0.2
v 0.3 0.8 -0.3
v 0.3 0.9 0.2
v 0.3 0.9 0.1
v 0.3 0.9 0
v 0.3 0.9 -0.2
v 0.3 0.9 -0.3
v 0.3 1 0.2
v 0.3 1 0.1
v 0.3 1 0
v 0.3 1 -0.1
v 0.3 1.1 0.1
v 0.3 1.1 0
v 0.3 1.1 -0.1
v 0.3 1.1 -0.2
v 0.3 1.2 0
v 0.3 1.2 -0.1
v 0.3 1.2 -0.2
v 0.3 1.2 -0.3
v 0.4 0.7 -0.1
v 0.4 0.7 -0.2
v 0.4 0.8 -0.1
v 0.4 0.8 -0.2
v -0.3 1 0.2
v -0.3 1.1 0.2
v -0.2 1 0.2
v -0.2 1.1 0.2
v -0.2 1.2 0.2
v -0.1 0.9 0.2
v -0.1 1.1 0.2
v 0 0.9 0.2
v 0 1.1 0.2
v 0.2 0.9 0.2
v 0.2 1 0.2
v 0.2 1.1 0.2
v 0.2 1.2 0.2
v 0.3 0.9 0.2
v 0.3 1 0.2
v -0.3 0.8 0.1
v -0.3 0.9 0.1
v -0.3 1 0.1
v -0.2 0.4 0.1
v -0.2 0.6 0.1
v -0.2 0.7 0.1
v -0.2 0.8 0.1
v -0.2 0.9 0.1
v -0.2 1 0.1
v -0.2 1.1 0.1
v -0.1 0.3 0.1
v -0.1 0.4 0.1
v -0.1 0.6 0.1
v -0.1 0.7 0.1
v -0.1 0.8 0.1
v -0.1 0.9 0.1
v -0.1 1.1 0.1
v -0.1 1.2 0.1
v -0.1 1.3 0.1
v 0 0.7 0.1
v 0 0.8 0.1
v 0 0.9 0.1
v 0 1 0.1
v 0 1.1 0.1
v 0.1 0.3 0.1
v 0.1 0.4 0.1
v 0.1 0.6 0.1
v 0.1 0.7 0.1
v 0.1 0.8 0.1
v 0.1 0.9 0.1
v 0.1 1 0.1
v 0.1 1.2 0.1
v 0.1 1.3 0.1
v 0.2 0.4 0.1
v 0.2 0.6 0.1
v 0.2 0.7 0.1
v 0.2 0.8 0.1
v 0.2 0.9 0.1
v 0.2 1 0.1
v 0.2 1.1 0.1
v 0.3 0.8 0.1
v 0.3 0.9 0.1
v 0.3 1 0.1
v 0.3 1.1 0.1
v -0.4 0.8 0
v -0.4 1 0
v -0.3 0.3 0
v -0.3 0.6 0
v -0.3 0.7 0
v -0.3 0.8 0
v -0.3 0.9 0
v -0.3 1 0
v -0.3 1.1 0
v -0.3 1.2 0
v -0.2 0 0
v -0.2 0.2 0
v -0.2 0.3 0
v -0.2 0.4 0
v -0.2 0.6 0
v -0.2 0.7 0
v -0.2 0.8 0
v -0.2 1.1 0
v -0.2 1.2 0
v -0.2 1.3 0
v -0.1 0 0
v -0.1 0.2 0
v -0.1 0.3 0
v -0.1 0.4 0
v -0.1 0.6 0
v -0.1 0.7 0
v -0.1 1.2 0
v -0.1 1.3 0
v 0.1 0 0
v 0.1 0.2 0
v 0.1 0.3 0
v 0.1 0.4 0
v 0.1 0.6 0
v 0.1 0.7 0
v 0.1 1.2 0
v 0.1 1.3 0
v 0.2 0 0
v 0.2 0.2 0
v 0.2 0.3 0
v 0.2 0.4 0
v 0.2 0.6 0
v 0.2 0.7 0
v 0.2 0.8 0
v 0.2 0.9 0
v 0.2 1 0
v 0.2 1.1 0
v 0.2 1.2 0
v 0.2 1.3 0
v 0.3 0.3 0
v 0.3 0.6 0
v 0.3 0.7 0
v 0.3 0.8 0
v 0.3 0.9 0
v 0.3 1 0
v 0.3 1.1 0
v 0.3 1.2 0
v -0.3 1 -0.1
v -0.3 1.1 -0.1
v -0.2 1 -0.1
v -0.2 1.1 -0.1
v 0.2 1 -0.1
v 0.2 1.1 -0.1
v 0.3 0.7 -0.1
v 0.3 0.8 -0.1
v 0.3 1 -0.1
v 0.3 1.1 -0.1
v 0.4 0.7 -0.1
v 0.4 0.8 -0.1
v -0.3 1.1 -0.2
v -0.3 1.2 -0.2
v -0.2 1.1 -0.2
v -0.2 1.2 -0.2
v 0.2 1.1 -0.2
v 0.2 1.2 -0.2
v 0.3 1.1 -0.2
v 0.3 1.2 -0.2
v 0.2 0.9 0.1
v 0.2 1 0.1
v 0.3 0.9 0.1
v 0.3 1 0.1
v -0.3 1 0
v -0.3 1.1 0
v -0.2 1 0
v -0.2 1.1 0
v 0.2 1 0
v 0.2 1.1 0
v 0.3 1 0
v 0.3 1.1 0
v -0.4 0.8 -0.1
v -0.4 1 -0.1
v -0.3 0.3 -0.1
v -0.3 0.6 -0.1
v -0.3 0.8 -0.1
v -0.3 1 -0.1
v -0.3 1.1 -0.1
v -0.3 1.2 -0.1
v -0.2 0 -0.1
v -0.2 0.2 -0.1
v -0.2 0.3 -0.1
v -0.2 0.4 -0.1
v -0.2 0.6 -0.1
v -0.2 1.1 -0.1
v -0.2 1.2 -0.1
v -0.2 1.3 -0.1
v -0.1 0 -0.1
v -0.1 0.2 -0.1
v -0.1 0.3 -0.1
v -0.1 0.4 -0.1
v -0.1 1.2 -0.1
v -0.1 1.3 -0.1
v 0.1 0 -0.1
v 0.1 0.2 -0.1
v 0.1 0.3 -0.1
v 0.1 0.4 -0.1
v 0.1 1.2 -0.1
v 0.1 1.3 -0.1
v 0.2 0 -0.1
v 0.2 0.2 -0.1
v 0.2 0.3 -0.1
v 0.2 0.4 -0.1
v 0.2 0.6 -0.1
v 0.2 1.1 -0.1
v 0.2 1.2 -0.1
v 0.2 1.3 -0.1
v 0.3 0.3 -0.1
v 0.3 0.6 -0.1
v 0.3 1.1 -0.1
v 0.3 1.2 -0.1
v -0.3 0.6 -0.2
v -0.3 0.7 -0.2
v -0.2 0.4 -0.2
v -0.2 0.6 -0.2
v -0.2 0.7 -0.2
v -0.1 0.3 -0.2
v -0.1 0.4 -0.2
v -0.1 0.8 -0.2
v -0.1 0.9 -0.2
v -0.1 1.2 -0.2
v -0.1 1.3 -0.2
v 0.1 0.3 -0.2
v 0.1 0.4 -0.2
v 0.1 0.8 -0.2
v 0.1 0.9 -0.2
v 0.1 1.2 -0.2
v 0.1 1.3 -0.2
v 0.2 0.4 -0.2
v 0.2 0.6 -0.2
v 0.2 0.7 -0.2
v 0.2 0.8 -0.2
v 0.2 0.9 -0.2
v 0.3 0.6 -0.2
v 0.3 0.7 -0.2
v 0.3 0.8 -0.2
v 0.3 0.9 -0.2
v 0.4 0.7 -0.2
v 0.4 0.8 -0.2
v -0.3 0.7 -0.3
v -0.3 1.2 -0.3
v -0.2 0.6 -0.3
v -0.2 0.7 -0.3
v -0.2 0.8 -0.3
v -0.2 0.9 -0.3
v -0.2 1.1 -0.3
v -0.1 0.6 -0.3
v -0.1 0.7 -0.3
v -0.1 0.8 -0.3
v -0.1 0.9 -0.3
v -0.1 1 -0.3
v 0.1 0.6 -0.3
v 0.1 0.7 -0.3
v 0.1 0.8 -0.3
v 0.1 0.9 -0.3
v 0.1 1 -0.3
v 0.2 0.6 -0.3
v 0.2 0.7 -0.3
v 0.2 0.8 -0.3
v 0.2 0.9 -0.3
v 0.2 1.1 -0.3
v 0.3 0.7 -0.3
v 0.3 0.8 -0.3
v 0.3 0.9 -0.3
v 0.3 1.2 -0.3
v -0.2 0.7 -0.4
v -0.2 0.8 -0.4
v -0.2 0.9 -0.4
v -0.2 1.1 -0.4
v -0.1 0.6 -0.4
v -0.1 0.7 -0.4
v -0.1 0.8 -0.4
v -0.1 0.9 -0.4
v -0.1 1 -0.4
v 0.1 0.6 -0.4
v 0.1 0.7 -0.4
v 0.1 0.8 -0.4
v 0.1 0.9 -0.4
v 0.1 1 -0.4
v 0.2 0.7 -0.4
v 0.2 0.8 -0.4
v 0.2 0.9 -0.4
v 0.2 1.1 -0.4
v -0.2 0 0
v -0.1 0 0
v 0.1 0 0
v 0.2 0 0
v -0.2 0 -0.1
v -0.1 0 -0.1
v 0.1 0 -0.1
v 0.2 0 -0.1
v -0.1 0.3 0.1
v 0.1 0.3 0.1
v -0.3 0.3 0
v -0.2 0.3 0
v -0.1 0.3 0
v 0.1 0.3 0
v 0.2 0.3 0
v 0.3 0.3 0
v -0.3 0.3 -0.1
v -0.2 0.3 -0.1
v -0.1 0.3 -0.1
v 0.1 0.3 -0.1
v 0.2 0.3 -0.1
v 0.3 0.3 -0.1
v -0.1 0.3 -0.2
v 0.1 0.3 -0.2
v -0.2 0.4 0.1
v -0.1 0.4 0.1
v 0.1 0.4 0.1
v 0.2 0.4 0.1
v -0.2 0.4 0
v -0.1 0.4 0
v 0.1 0.4 0
v 0.2 0.4 0
v -0.2 0.4 -0.1
v -0.1 0.4 -0.1
v 0.1 0.4 -0.1
v 0.2 0.4 -0.1
v -0.2 0.4 -0.2
v -0.1 0.4 -0.2
v 0.1 0.4 -0.2
v 0.2 0.4 -0.2
v -0.3 0.6 -0.1
v -0.2 0.6 -0.1
v 0.2 0.6 -0.1
v 0.3 0.6 -0.1
v -0.3 0.6 -0.2
v -0.2 0.6 -0.2
v 0.2 0.6 -0.2
v 0.3 0.6 -0.2
v -0.2 0.6 -0.3
v -0.1 0.6 -0.3
v 0.1 0.6 -0.3
v 0.2 0.6 -0.3
v -0.1 0.6 -0.4
v 0.1 0.6 -0.4
v -0.2 0.7 0.1
v -0.1 0.7 0.1
v 0.1 0.7 0.1
v 0.2 0.7 0.1
v -0.2 0.7 0
v -0.1 0.7 0
v 0.1 0.7 0
v 0.2 0.7 0
v 0.3 0.7 -0.1
v 0.4 0.7 -0.1
v -0.3 0.7 -0.2
v -0.2 0.7 -0.2
v 0.2 0.7 -0.2
v 0.3 0.7 -0.2
v 0.4 0.7 -0.2
v -0.3 0.7 -0.3
v -0.2 0.7 -0.3
v -0.1 0.7 -0.3
v 0.1 0.7 -0.3
v 0.2 0.7 -0.3
v 0.3 0.7 -0.3
v -0.2 0.7 -0.4
v -0.1 0.7 -0.4
v 0.1 0.7 -0.4
v 0.2 0.7 -0.4
v -0.3 0.8 0.1
v -0.2 0.8 0.1
v 0.2 0.8 0.1
v 0.3 0.8 0.1
v -0.4 0.8 0
v -0.3 0.8 0
v -0.2 0.8 0
v 0.2 0.8 0
v 0.3 0.8 0
v -0.4 0.8 -0.1
v -0.3 0.8 -0.1
v -0.1 0.9 0.2
v 0 0.9 0.2
v 0.2 0.9 0.2
v 0.3 0.9 0.2
v -0.1 0.9 0.1
v 0 0.9 0.1
v 0.2 0.9 0.1
v 0.3 0.9 0.1
v -0.1 0.9 -0.2
v 0.1 0.9 -0.2
v 0.2 0.9 -0.2
v 0.3 0.9 -0.2
v -0.2 0.9 -0.3
v -0.1 0.9 -0.3
v 0.1 0.9 -0.3
v 0.2 0.9 -0.3
v 0.3 0.9 -0.3
v -0.2 0.9 -0.4
v -0.1 0.9 -0.4
v 0.1 0.9 -0.4
v 0.2 0.9 -0.4
v -0.3 1 0.2
v -0.2 1 0.2
v -0.3 1 0.1
v -0.2 1 0.1
v 0.2 1 0.1
v 0.3 1 0.1
v 0.2 1 0
v 0.3 1 0
v -0.1 1 -0.3
v 0.1 1 -0.3
v -0.1 1 -0.4
v 0.1 1 -0.4
v -0.2 1.1 0.2
v -0.1 1.1 0.2
v 0 1.1 0.2
v 0.2 1.1 0.2
v -0.2 1.1 0.1
v -0.1 1.1 0.1
v 0 1.1 0.1
v 0.2 1.1 0.1
v -0.3 1.1 0
v -0.2 1.1 0
v 0.2 1.1 0
v 0.3 1.1 0
v -0.3 1.1 -0.1
v -0.2 1.1 -0.1
v 0.2 1.1 -0.1
v 0.3 1.1 -0.1
v -0.2 0.6 0.1
v -0.1 0.6 0.1
v 0.1 0.6 0.1
v 0.2 0.6 0.1
v -0.2 0.6 0
v -0.1 0.6 0
v 0.1 0.6 0
v 0.2 0.6 0
v -0.1 0.7 -0.3
v 0.1 0.7 -0.3
v -0.1 0.7 -0.4
v 0.1 0.7 -0.4
v 0.3 0.8 -0.1
v 0.4 0.8 -0.1
v -0.1 0.8 -0.2
v 0.1 0.8 -0.2
v 0.2 0.8 -0.2
v 0.3 0.8 -0.2
v 0.4 0.8 -0.2
v -0.2 0.8 -0.3
v -0.1 0.8 -0.3
v 0.1 0.8 -0.3
v 0.2 0.8 -0.3
v 0.3 0.8 -0.3
v -0.2 0.8 -0.4
v -0.1 0.8 -0.4
v 0.1 0.8 -0.4
v 0.2 0.8 -0.4
v 0.2 0.9 0.1
v 0.3 0.9 0.1
v 0.2 0.9 0
v 0.3 0.9 0
v 0.2 1 0.2
v 0.3 1 0.2
v 0.2 1 0.1
v 0.3 1 0.1
v -0.4 1 0
v -0.3 1 0
v -0.2 1 0
v 0.2 1 0
v 0.3 1 0
v -0.4 1 -0.1
v -0.3 1 -0.1
v -0.2 1 -0.1
v 0.2 1 -0.1
v 0.3 1 -0.1
v -0.3 1.1 0.2
v -0.2 1.1 0.2
v 0.2 1.1 0.1
v 0.3 1.1 0.1
v -0.3 1.1 0
v -0.2 1.1 0
v 0.2 1.1 0
v 0.3 1.1 0
v -0.3 1.1 -0.1
v -0.2 1.1 -0.1
v 0.2 1.1 -0.1
v 0.3 1.1 -0.1
v -0.3 1.1 -0.2
v -0.2 1.1 -0.2
v 0.2 1.1 -0.2
v 0.3 1.1 -0.2
v -0.2 1.1 -0.3
v 0.2 1.1 -0.3
v -0.2 1.1 -0.4
v 0.2 1.1 -0.4
v -0.2 1.2 0.2
v 0.2 1.2 0.2
v -0.1 1.2 0.1
v 0.1 1.2 0.1
v -0.3 1.2 0
v -0.2 1.2 0
v -0.1 1.2 0
v 0.1 1.2 0
v 0.2 1.2 0
v 0.3 1.2 0
v -0.3 1.2 -0.1
v -0.2 1.2 -0.1
v -0.1 1.2 -0.1
v 0.1 1.2 -0.1
v 0.2 1.2 -0.1
v 0.3 1.2 -0.1
v -0.3 1.2 -0.2
v -0.2 1.2 -0.2
v -0.1 1.2 -0.2
v 0.1 1.2 -0.2
v 0.2 1.2 -0.2
v 0.3 1.2 -0.2
v -0.3 1.2 -0.3
v 0.3 1.2 -0.3
v -0.1 1.3 0.1
v 0.1 1.3 0.1
v -0.2 1.3 0
v -0.1 1.3 0
v 0.1 1.3 0
v 0.2 1.3 0
v -0.2 1.3 -0.1
v -0.1 1.3 -0.1
v 0.1 1.3 -0.1
v 0.2 1.3 -0.1
v -0.1 1.3 -0.2
v 0.1 1.3 -0.2

# faces
f 3/8/1 2/8/1 1/8/1
f 4/8/1 2/8/1 3/8/1
f 7/1/1 6/1/1 5/1/1
f 8/1/1 6/1/1 7/1/1
f 10/10/1 8/10/1 7/10/1
f 11/8/1 9/8/1 8/8/1
f 11/10/1 8/10/1 10/10/1
f 12/8/1 9/8/1 11/8/1
f 15/8/1 11/8/1 10/8/1
f 15/8/1 13/8/1 12/8/1
f 15/8/1 12/8/1 11/8/1
f 16/8/1 13/8/1 15/8/1
f 17/7/1 15/7/1 14/7/1
f 18/7/1 15/7/1 17/7/1
f 20/5/1 18/5/1 17/5/1
f 21/5/1 18/5/1 20/5/1
f 22/8/1 13/8/1 16/8/1
f 23/8/1 21/8/1 20/8/1
f 23/8/1 20/8/1 19/8/1
f 24/8/1 21/8/1 23/8/1
f 25/8/1 13/8/1 22/8/1
f 26/8/1 13/8/1 25/8/1
f 27/8/1 25/8/1 24/8/1
f 28/8/1 25/8/1 27/8/1
f 29/8/1 13/8/1 26/8/1
f 30/8/1 13/8/1 29/8/1
f 33/4/1 32/4/1 31/4/1
f 34/4/1 32/4/1 33/4/1
f 35/1/1 34/1/1 33/1/1
f 36/1/1 34/1/1 35/1/1
f 41/10/1 38/10/1 37/10/1
f 42/10/1 38/10/1 41/10/1
f 43/10/1 40/10/1 39/10/1
f 44/10/1 40/10/1 43/10/1
f 48/8/1 45/8/1 44/8/1
f 49/8/1 45/8/1 48/8/1
f 51/2/1 47/2/1 46/2/1
f 52/2/1 47/2/1 51/2/1
f 53/8/1 50/8/1 49/8/1
f 54/8/1 50/8/1 53/8/1
f 60/8/1 58/8/1 57/8/1
f 61/8/1 58/8/1 60/8/1
f 63/8/1 56/8/1 55/8/1
f 64/8/1 56/8/1 63/8/1
f 65/8/1 60/8/1 59/8/1
f 66/8/1 60/8/1 65/8/1
f 67/8/1 62/8/1 61/8/1
f 68/8/1 62/8/1 67/8/1
f 69/8/1 67/8/1 66/8/1
f 70/8/1 67/8/1 69/8/1
f 75/6/1 72/6/1 71/6/1
f 76/6/1 72/6/1 75/6/1
f 77/6/1 74/6/1 73/6/1
f 78/6/1 74/6/1 77/6/1
f 83/10/1 80/10/1 79/10/1
f 84/10/1 80/10/1 83/10/1
f 85/8/1 82/8/1 81/8/1
f 86/8/1 82/8/1 85/8/1
f 89/8/1 88/8/1 87/8/1
f 90/8/1 88/8/1 89/8/1
f 95/8/1 92/8/1 91/8/1
f 96/8/1 92/8/1 95/8/1
f 97/8/1 94/8/1 93/8/1
f 98/8/1 94/8/1 97/8/1
f 101/4/1 100/4/1 99/4/1
f 102/4/1 100/4/1 101/4/1
f 103/1/1 102/1/1 101/1/1
f 104/1/1 102/1/1 103/1/1
f 108/8/1 106/8/1 105/8/1
f 109/8/1 106/8/1 108/8/1
f 110/8/1 108/8/1 107/8/1
f 111/8/1 108/8/1 110/8/1
f 113/8/1 112/8/1 111/8/1
f 114/8/1 112/8/1 113/8/1
f 117/8/1 116/8/1 115/8/1
f 118/8/1 116/8/1 117/8/1
f 119/8/2 120/8/2 121/8/2
f 121/8/2 120/8/2 122/8/2
f 123/4/2 124/4/2 125/4/2
f 125/4/2 124/4/2 126/4/2
f 125/1/2 126/1/2 127/1/2
f 127/1/2 126/1/2 128/1/2
f 129/8/2 130/8/2 132/8/2
f 132/8/2 130/8/2 133/8/2
f 131/8/2 132/8/2 134/8/2
f 134/8/2 132/8/2 135/8/2
f 135/8/2 136/8/2 137/8/2
f 137/8/2 136/8/2 138/8/2
f 139/8/2 140/8/2 141/8/2
f 139/8/2 141/8/2 142/8/2
f 142/8/2 141/8/2 143/8/2
f 144/6/2 145/6/2 148/6/2
f 148/6/2 145/6/2 149/6/2
f 146/6/2 147/6/2 150/6/2
f 150/6/2 147/6/2 151/6/2
f 152/10/2 153/10/2 156/10/2
f 156/10/2 153/10/2 157/10/2
f 154/8/2 155/8/2 158/8/2
f 158/8/2 155/8/2 159/8/2
f 160/8/2 161/8/2 164/8/2
f 164/8/2 161/8/2 165/8/2
f 162/8/2 163/8/2 166/8/2
f 166/8/2 163/8/2 167/8/2
f 168/4/2 169/4/2 170/4/2
f 170/4/2 169/4/2 171/4/2
f 170/1/2 171/1/2 172/1/2
f 172/1/2 171/1/2 173/1/2
f 174/10/2 175/10/2 178/10/2
f 178/10/2 175/10/2 179/10/2
f 176/10/2 177/10/2 180/10/2
f 180/10/2 177/10/2 181/10/2
f 181/8/2 182/8/2 185/8/2
f 185/8/2 182/8/2 186/8/2
f 183/1/2 184/1/2 188/1/2
f 188/1/2 184/1/2 189/1/2
f 186/8/2 187/8/2 191/8/2
f 191/8/2 187/8/2 192/8/2
f 190/8/2 191/8/2 195/8/2
f 195/8/2 191/8/2 196/8/2
f 193/8/2 194/8/2 198/8/2
f 198/8/2 194/8/2 199/8/2
f 199/8/2 200/8/2 203/8/2
f 203/8/2 200/8/2 204/8/2
f 196/8/2 197/8/2 206/8/2
f 206/8/2 197/8/2 207/8/2
f 201/8/2 202/8/2 208/8/2
f 202/8/2 203/8/2 208/8/2
f 208/8/2 203/8/2 209/8/2
f 204/8/2 205/8/2 210/8/2
f 210/8/2 205/8/2 211/8/2
f 209/8/2 210/8/2 212/8/2
f 212/8/2 210/8/2 213/8/2
f 214/1/2 215/1/2 216/1/2
f 216/1/2 215/1/2 217/1/2
f 216/10/2 217/10/2 219/10/2
f 217/8/2 218/8/2 220/8/2
f 219/10/2 217/10/2 220/10/2
f 220/8/2 218/8/2 221/8/2
f 219/8/2 220/8/2 224/8/2
f 224/8/2 220/8/2 225/8/2
f 221/8/2 222/8/2 226/8/2
f 226/8/2 222/8/2 227/8/2
f 224/8/2 225/8/2 229/8/2
f 223/8/2 224/8/2 229/8/2
f 225/8/2 226/8/2 229/8/2
f 229/8/2 226/8/2 230/8/2
f 230/8/2 226/8/2 231/8/2
f 228/8/2 229/8/2 233/8/2
f 233/8/2 229/8/2 234/8/2
f 231/8/2 232/8/2 235/8/2
f 230/8/2 231/8/2 235/8/2
f 235/8/2 232/8/2 236/8/2
f 234/8/2 235/8/2 237/8/2
f 237/8/2 235/8/2 238/8/2
f 236/8/2 232/8/2 239/8/2
f 239/8/2 232/8/2 240/8/2
f 238/8/2 239/8/2 241/8/2
f 241/8/2 239/8/2 242/8/2
f 240/8/2 232/8/2 243/8/2
f 243/8/2 232/8/2 244/8/2
f 245/8/2 246/8/2 247/8/2
f 247/8/2 246/8/2 248/8/2
f 251/8/3 250/8/3 249/8/3
f 252/8/3 250/8/3 251/8/3
f 255/8/3 253/8/3 252/8/3
f 256/8/3 255/8/3 254/8/3
f 257/8/3 253/8/3 255/8/3
f 257/8/3 255/8/3 256/8/3
f 260/8/3 253/8/3 257/8/3
f 261/8/3 253/8/3 260/8/3
f 262/8/3 259/8/3 258/8/3
f 263/8/3 259/8/3 262/8/3
f 270/7/3 265/7/3 264/7/3
f 271/5/3 266/5/3 265/5/3
f 271/7/3 265/7/3 270/7/3
f 272/5/3 266/5/3 271/5/3
f 275/10/3 268/10/3 267/10/3
f 276/10/3 268/10/3 275/10/3
f 277/2/3 270/2/3 269/2/3
f 278/11/3 271/11/3 270/11/3
f 278/2/3 270/2/3 277/2/3
f 279/8/3 273/8/3 272/8/3
f 279/11/3 271/11/3 278/11/3
f 279/8/3 272/8/3 271/8/3
f 280/8/3 273/8/3 279/8/3
f 283/2/3 278/2/3 277/2/3
f 283/10/3 276/10/3 275/10/3
f 283/10/3 277/10/3 276/10/3
f 284/1/3 279/1/3 278/1/3
f 284/2/3 278/2/3 283/2/3
f 285/1/3 279/1/3 284/1/3
f 288/6/3 275/6/3 274/6/3
f 289/10/3 283/10/3 275/10/3
f 289/6/3 275/6/3 288/6/3
f 290/10/3 283/10/3 289/10/3
f 291/1/3 284/1/3 283/1/3
f 291/10/3 283/10/3 290/10/3
f 291/1/3 285/1/3 284/1/3
f 292/1/3 285/1/3 291/1/3
f 293/5/3 286/5/3 285/5/3
f 293/1/3 285/1/3 292/1/3
f 294/8/3 287/8/3 286/8/3
f 294/5/3 286/5/3 293/5/3
f 295/8/3 282/8/3 281/8/3
f 296/8/3 282/8/3 295/8/3
f 297/10/3 290/10/3 289/10/3
f 298/10/3 290/10/3 297/10/3
f 299/1/3 292/1/3 291/1/3
f 300/11/3 293/11/3 292/11/3
f 300/1/3 292/1/3 299/1/3
f 301/8/3 294/8/3 293/8/3
f 301/11/3 293/11/3 300/11/3
f 302/8/3 287/8/3 294/8/3
f 302/8/3 294/8/3 301/8/3
f 303/8/3 287/8/3 302/8/3
f 304/8/3 301/8/3 300/8/3
f 305/8/3 301/8/3 304/8/3
f 306/8/3 303/8/3 302/8/3
f 307/8/3 303/8/3 306/8/3
f 313/8/3 309/8/3 308/8/3
f 314/8/3 309/8/3 313/8/3
f 315/8/3 309/8/3 314/8/3
f 320/1/3 311/1/3 310/1/3
f 321/1/3 311/1/3 320/1/3
f 322/10/3 312/10/3 311/10/3
f 322/1/3 311/1/3 321/1/3
f 323/8/3 313/8/3 312/8/3
f 323/10/3 312/10/3 322/10/3
f 324/8/3 313/8/3 323/8/3
f 325/8/3 317/8/3 316/8/3
f 326/8/3 317/8/3 325/8/3
f 328/4/3 319/4/3 318/4/3
f 329/1/3 320/1/3 319/1/3
f 329/4/3 319/4/3 328/4/3
f 330/6/3 321/6/3 320/6/3
f 330/1/3 320/1/3 329/1/3
f 331/6/3 321/6/3 330/6/3
f 332/10/3 323/10/3 322/10/3
f 333/10/3 323/10/3 332/10/3
f 334/8/3 327/8/3 326/8/3
f 335/8/3 327/8/3 334/8/3
f 344/4/3 337/4/3 336/4/3
f 345/1/3 338/1/3 337/1/3
f 345/4/3 337/4/3 344/4/3
f 346/6/3 339/6/3 338/6/3
f 346/1/3 338/1/3 345/1/3
f 347/6/3 339/6/3 346/6/3
f 348/10/3 341/10/3 340/10/3
f 349/10/3 341/10/3 348/10/3
f 354/8/3 343/8/3 342/8/3
f 355/8/3 343/8/3 354/8/3
f 356/1/3 347/1/3 346/1/3
f 356/1/3 348/1/3 347/1/3
f 357/10/3 349/10/3 348/10/3
f 357/1/3 348/1/3 356/1/3
f 358/8/3 350/8/3 349/8/3
f 358/10/3 349/10/3 357/10/3
f 359/8/3 350/8/3 358/8/3
f 360/8/3 352/8/3 351/8/3
f 361/8/3 352/8/3 360/8/3
f 362/8/3 354/8/3 353/8/3
f 363/8/3 354/8/3 362/8/3
f 366/8/3 365/8/3 364/8/3
f 367/8/3 365/8/3 366/8/3
f 372/8/3 369/8/3 368/8/3
f 373/8/3 369/8/3 372/8/3
f 374/8/3 371/8/3 370/8/3
f 375/8/3 371/8/3 374/8/3
f 378/8/3 377/8/3 376/8/3
f 379/8/3 377/8/3 378/8/3
f 382/8/3 381/8/3 380/8/3
f 383/8/3 381/8/3 382/8/3
f 384/8/4 385/8/4 386/8/4
f 386/8/4 385/8/4 387/8/4
f 388/8/4 389/8/4 390/8/4
f 390/8/4 389/8/4 391/8/4
f 392/8/4 393/8/4 394/8/4
f 394/8/4 393/8/4 395/8/4
f 396/8/4 397/8/4 400/8/4
f 400/8/4 397/8/4 401/8/4
f 398/1/4 399/1/4 406/1/4
f 406/1/4 399/1/4 407/1/4
f 407/1/4 399/1/4 408/1/4
f 402/8/4 403/8/4 409/8/4
f 409/8/4 403/8/4 410/8/4
f 404/4/4 405/4/4 412/4/4
f 405/1/4 406/1/4 413/1/4
f 412/4/4 405/4/4 413/4/4
f 406/6/4 407/6/4 414/6/4
f 413/1/4 406/1/4 414/1/4
f 414/6/4 407/6/4 415/6/4
f 410/8/4 411/8/4 416/8/4
f 416/8/4 411/8/4 417/8/4
f 418/4/4 419/4/4 424/4/4
f 419/1/4 420/1/4 425/1/4
f 424/4/4 419/4/4 425/4/4
f 420/6/4 421/6/4 426/6/4
f 425/1/4 420/1/4 426/1/4
f 426/6/4 421/6/4 427/6/4
f 422/8/4 423/8/4 430/8/4
f 430/8/4 423/8/4 431/8/4
f 427/1/4 428/1/4 432/1/4
f 426/1/4 427/1/4 432/1/4
f 432/1/4 428/1/4 433/1/4
f 429/8/4 430/8/4 434/8/4
f 434/8/4 430/8/4 435/8/4
f 436/8/4 437/8/4 439/8/4
f 439/8/4 437/8/4 440/8/4
f 438/10/4 439/10/4 442/10/4
f 441/6/4 442/6/4 447/6/4
f 442/10/4 439/10/4 448/10/4
f 447/6/4 442/6/4 448/6/4
f 443/8/4 444/8/4 449/8/4
f 449/8/4 444/8/4 450/8/4
f 445/8/4 446/8/4 451/8/4
f 451/8/4 446/8/4 452/8/4
f 448/10/4 439/10/4 453/10/4
f 453/10/4 439/10/4 454/10/4
f 454/8/4 455/8/4 458/8/4
f 458/8/4 455/8/4 459/8/4
f 456/8/4 457/8/4 460/8/4
f 460/8/4 457/8/4 461/8/4
f 459/8/4 460/8/4 462/8/4
f 462/8/4 460/8/4 463/8/4
f 464/8/4 465/8/4 467/8/4
f 467/8/4 465/8/4 468/8/4
f 468/8/4 465/8/4 469/8/4
f 469/8/4 465/8/4 470/8/4
f 466/8/4 467/8/4 471/8/4
f 471/8/4 467/8/4 472/8/4
f 468/8/4 469/8/4 473/8/4
f 473/8/4 469/8/4 474/8/4
f 472/8/4 473/8/4 477/8/4
f 477/8/4 473/8/4 478/8/4
f 474/8/4 475/8/4 479/8/4
f 479/8/4 475/8/4 480/8/4
f 476/8/4 477/8/4 481/8/4
f 481/8/4 477/8/4 482/8/4
f 478/8/4 479/8/4 483/8/4
f 483/8/4 479/8/4 484/8/4
f 470/8/4 465/8/4 485/8/4
f 482/8/4 483/8/4 486/8/4
f 486/8/4 483/8/4 487/8/4
f 484/8/4 485/8/4 488/8/4
f 485/8/4 465/8/4 489/8/4
f 488/8/4 485/8/4 489/8/4
f 490/8/4 491/8/4 495/8/4
f 495/8/4 491/8/4 496/8/4
f 492/8/4 493/8/4 497/8/4
f 497/8/4 493/8/4 498/8/4
f 494/8/4 495/8/4 499/8/4
f 499/8/4 495/8/4 500/8/4
f 498/8/4 493/8/4 503/8/4
f 500/8/4 501/8/4 504/8/4
f 504/8/4 501/8/4 505/8/4
f 502/8/4 503/8/4 506/8/4
f 503/8/4 493/8/4 507/8/4
f 506/8/4 503/8/4 507/8/4
f 512/4/5 509/4/5 508/4/5
f 513/4/5 509/4/5 512/4/5
f 514/4/5 511/4/5 510/4/5
f 515/4/5 511/4/5 514/4/5
f 520/6/5 517/6/5 516/6/5
f 521/6/5 517/6/5 520/6/5
f 524/1/5 519/1/5 518/1/5
f 525/1/5 519/1/5 524/1/5
f 526/6/5 521/6/5 520/6/5
f 527/6/5 521/6/5 526/6/5
f 528/1/5 523/1/5 522/1/5
f 529/1/5 523/1/5 528/1/5
f 530/6/5 527/6/5 526/6/5
f 531/6/5 527/6/5 530/6/5
f 536/10/5 533/10/5 532/10/5
f 537/10/5 533/10/5 536/10/5
f 538/10/5 535/10/5 534/10/5
f 539/10/5 535/10/5 538/10/5
f 544/10/5 541/10/5 540/10/5
f 545/10/5 541/10/5 544/10/5
f 546/10/5 543/10/5 542/10/5
f 547/10/5 543/10/5 546/10/5
f 552/8/5 549/8/5 548/8/5
f 553/8/5 549/8/5 552/8/5
f 554/8/5 551/8/5 550/8/5
f 555/8/5 551/8/5 554/8/5
f 556/8/5 554/8/5 553/8/5
f 557/8/5 554/8/5 556/8/5
f 558/8/5 554/8/5 557/8/5
f 559/8/5 554/8/5 558/8/5
f 560/8/5 558/8/5 557/8/5
f 561/8/5 558/8/5 560/8/5
f 566/2/5 563/2/5 562/2/5
f 567/2/5 563/2/5 566/2/5
f 568/1/5 565/1/5 564/1/5
f 569/1/5 565/1/5 568/1/5
f 575/8/5 571/8/5 570/8/5
f 576/8/5 571/8/5 575/8/5
f 577/8/5 573/8/5 572/8/5
f 578/8/5 573/8/5 577/8/5
f 581/8/5 575/8/5 574/8/5
f 582/8/5 575/8/5 581/8/5
f 583/8/5 579/8/5 578/8/5
f 584/8/5 579/8/5 583/8/5
f 585/8/5 581/8/5 580/8/5
f 586/8/5 581/8/5 585/8/5
f 592/7/5 588/7/5 587/7/5
f 593/7/5 588/7/5 592/7/5
f 594/8/5 590/8/5 589/8/5
f 595/8/5 590/8/5 594/8/5
f 596/8/5 592/8/5 591/8/5
f 597/8/5 592/8/5 596/8/5
f 602/8/5 599/8/5 598/8/5
f 603/8/5 599/8/5 602/8/5
f 604/8/5 601/8/5 600/8/5
f 605/8/5 601/8/5 604/8/5
f 611/8/5 607/8/5 606/8/5
f 612/8/5 607/8/5 611/8/5
f 613/8/5 609/8/5 608/8/5
f 614/8/5 609/8/5 613/8/5
f 615/8/5 611/8/5 610/8/5
f 616/8/5 611/8/5 615/8/5
f 617/8/5 613/8/5 612/8/5
f 618/8/5 613/8/5 617/8/5
f 621/8/5 620/8/5 619/8/5
f 622/8/5 620/8/5 621/8/5
f 625/8/5 624/8/5 623/8/5
f 626/8/5 624/8/5 625/8/5
f 629/8/5 628/8/5 627/8/5
f 630/8/5 628/8/5 629/8/5
f 635/8/5 632/8/5 631/8/5
f 636/8/5 632/8/5 635/8/5
f 637/8/5 634/8/5 633/8/5
f 638/8/5 634/8/5 637/8/5
f 643/8/5 640/8/5 639/8/5
f 644/8/5 640/8/5 643/8/5
f 645/8/5 642/8/5 641/8/5
f 646/8/5 642/8/5 645/8/5
f 647/10/6 648/10/6 651/10/6
f 651/10/6 648/10/6 652/10/6
f 649/10/6 650/10/6 653/10/6
f 653/10/6 650/10/6 654/10/6
f 655/8/6 656/8/6 657/8/6
f 657/8/6 656/8/6 658/8/6
f 659/8/6 660/8/6 664/8/6
f 664/8/6 660/8/6 665/8/6
f 661/8/6 662/8/6 667/8/6
f 667/8/6 662/8/6 668/8/6
f 663/8/6 664/8/6 669/8/6
f 669/8/6 664/8/6 670/8/6
f 666/8/6 667/8/6 671/8/6
f 671/8/6 667/8/6 672/8/6
f 668/8/6 669/8/6 673/8/6
f 673/8/6 669/8/6 674/8/6
f 675/8/6 676/8/6 677/8/6
f 677/8/6 676/8/6 678/8/6
f 679/8/6 680/8/6 681/8/6
f 681/8/6 680/8/6 682/8/6
f 683/8/6 684/8/6 688/8/6
f 684/8/6 685/8/6 688/8/6
f 688/8/6 685/8/6 689/8/6
f 689/8/6 685/8/6 690/8/6
f 686/8/6 687/8/6 691/8/6
f 691/8/6 687/8/6 692/8/6
f 693/8/6 694/8/6 697/8/6
f 697/8/6 694/8/6 698/8/6
f 695/8/6 696/8/6 699/8/6
f 699/8/6 696/8/6 700/8/6
f 701/8/6 702/8/6 705/8/6
f 705/8/6 702/8/6 706/8/6
f 703/8/6 704/8/6 707/8/6
f 707/8/6 704/8/6 708/8/6
f 709/8/6 710/8/6 711/8/6
f 711/8/6 710/8/6 712/8/6
f 713/8/6 714/8/6 715/8/6
f 715/8/6 714/8/6 716/8/6
f 713/8/6 715/8/6 718/8/6
f 718/8/6 715/8/6 719/8/6
f 716/8/6 714/8/6 720/8/6
f 720/8/6 714/8/6 721/8/6
f 717/8/6 718/8/6 723/8/6
f 723/8/6 718/8/6 724/8/6
f 721/8/6 722/8/6 727/8/6
f 727/8/6 722/8/6 728/8/6
f 724/8/6 725/8/6 730/8/6
f 730/8/6 725/8/6 731/8/6
f 726/8/6 727/8/6 732/8/6
f 732/8/6 727/8/6 733/8/6
f 730/8/6 731/8/6 735/8/6
f 733/8/6 734/8/6 735/8/6
f 732/8/6 733/8/6 735/8/6
f 731/8/6 732/8/6 735/8/6
f 729/8/6 730/8/6 735/8/6
f 735/8/6 734/8/6 736/8/6
f 737/8/6 738/8/6 740/8/6
f 740/8/6 738/8/6 741/8/6
f 739/8/6 740/8/6 743/8/6
f 741/8/6 742/8/6 743/8/6
f 740/8/6 741/8/6 743/8/6
f 743/8/6 742/8/6 744/8/6
f 744/8/6 742/8/6 745/8/6
f 745/8/6 742/8/6 746/8/6
f 744/8/6 745/8/6 747/8/6
f 747/8/6 745/8/6 748/8/6
